<svg width="1127" height="178" viewBox="0 0 1127 178" fill="none" xmlns="http://www.w3.org/2000/svg">
<path d="M466.8 145.008C459.504 145.008 453.936 143.136 450.096 139.392C446.256 135.552 444.336 130.368 444.336 123.84C444.336 106.176 458.88 97.296 487.968 97.2V91.728C487.968 85.392 483.696 82.224 475.152 82.224C471.6 82.224 468.48 82.656 465.792 83.52C463.104 84.288 460.752 85.152 458.736 86.112C456.72 86.976 455.568 87.408 455.28 87.408C454.032 87.408 452.592 86.064 450.96 83.376C449.424 80.688 448.656 78.672 448.656 77.328C448.656 75.792 449.856 74.304 452.256 72.864C454.752 71.328 458.112 70.08 462.336 69.12C466.56 68.16 471.12 67.68 476.016 67.68C486.192 67.68 493.728 69.792 498.624 74.016C503.616 78.144 506.112 83.856 506.112 91.152V120.096C506.112 126.624 506.4 131.424 506.976 134.496C507.552 137.472 507.84 139.296 507.84 139.968C507.84 141.312 506.256 142.368 503.088 143.136C499.92 143.808 497.088 145.01 494.592 145.01C493.056 145.01 491.952 143.472 491.28 142.128C490.608 140.688 490.08 139.152 489.696 137.52C489.408 135.888 489.216 134.784 489.12 134.208C487.104 136.8 484.224 139.248 480.48 141.552C476.832 143.856 472.272 145.008 466.8 145.008ZM471.696 130.464C475.056 130.464 478.128 129.6 480.912 127.872C483.696 126.048 486.048 123.744 487.968 120.96V110.016C480.096 110.016 473.904 110.928 469.392 112.752C464.976 114.48 462.768 117.6 462.768 122.112C462.768 124.704 463.536 126.768 465.072 128.304C466.608 129.744 468.816 130.464 471.696 130.464Z" fill="black"/>
<path d="M534.181 145.01C529.093 145.01 526.549 142.896 526.549 140.112V72.576C526.549 69.792 529.093 67.68 534.181 67.68C534.181 67.68 531.973 67.68 537.061 67.68C542.149 67.68 544.693 69.792 544.693 72.576V140.112C544.693 142.896 542.149 145.01 537.061 145.01H534.181ZM535.765 60.336C529.621 60.336 526.549 58.944 526.549 56.16V45.792C526.549 43.104 529.621 41.76 535.765 41.76C541.813 41.76 544.837 43.104 544.837 45.792V56.16C544.837 58.944 541.813 60.336 535.765 60.336Z" fill="black"/>
<path d="M564.082 145.01C558.706 145.01 556.018 143.424 556.018 141.696C556.018 141.024 556.498 139.968 557.458 138.528L579.778 105.696L558.898 74.304C557.938 72.672 557.458 71.568 557.458 70.992C557.458 69.264 560.194 67.68 565.666 67.68H569.122C571.33 67.68 573.01 68.592 574.162 68.976C575.41 69.264 576.37 69.936 577.042 70.992L587.554 87.408L590.002 91.44L592.594 87.264L603.25 70.848C603.922 69.888 604.882 69.264 606.13 68.976C607.474 68.592 609.202 67.68 611.314 67.68H614.194C619.57 67.68 622.258 69.264 622.258 70.992C622.258 71.664 621.778 72.72 620.818 74.16L599.506 105.552L621.538 138.384C622.498 140.016 622.978 141.12 622.978 141.696C622.978 143.424 620.242 145.01 614.77 145.01H611.314C609.106 145.01 607.378 144.144 606.13 143.856C604.978 143.472 604.066 142.752 603.394 141.696L591.586 123.408C590.722 122.16 589.954 120.96 589.282 119.808L587.122 123.408L575.026 141.84C574.354 142.8 573.394 143.472 572.146 143.856C570.898 144.144 569.218 145.01 567.106 145.01H564.082Z" fill="black"/>
<path d="M715.045 67.68C729.445 67.68 736.645 75.456 736.645 91.008V140.112C736.645 142.896 734.101 145.01 729.013 145.01H726.133C721.045 145.01 718.501 142.896 718.501 140.112V93.456C718.501 86.352 715.045 82.8 708.133 82.8C705.061 82.8 702.373 83.76 700.069 85.68C697.765 87.504 695.941 89.52 694.597 91.728V140.112C694.597 142.896 692.053 145.01 686.965 145.01H684.229C681.541 145.01 679.573 143.952 678.325 143.28C677.173 142.608 676.597 141.552 676.597 140.112V93.456C676.597 86.352 673.141 82.8 666.229 82.8C662.965 82.8 660.133 83.856 657.733 85.968C655.333 87.984 653.653 89.904 652.693 91.728V140.112C652.693 142.896 650.149 145.01 645.061 145.01H642.181C637.093 145.01 634.549 142.896 634.549 140.112V92.88C634.549 86.448 634.261 81.744 633.685 78.768C633.109 75.792 632.821 73.968 632.821 73.296C632.821 71.952 634.405 70.944 637.573 70.272C640.741 69.504 643.573 67.68 646.069 67.68C647.605 67.68 648.709 69.792 649.381 71.136C650.053 72.48 650.533 73.92 650.821 75.456C651.205 76.896 651.445 77.904 651.541 78.48C654.037 75.408 657.157 72.864 660.901 70.848C664.741 68.736 668.821 67.68 673.141 67.68C683.221 67.68 689.701 71.424 692.581 78.912C695.173 75.744 698.437 73.104 702.373 70.992C706.405 68.784 710.629 67.68 715.045 67.68Z" fill="black"/>
<path d="M775.331 145.008C768.035 145.008 762.467 143.136 758.627 139.392C754.787 135.552 752.867 130.368 752.867 123.84C752.867 106.176 767.411 97.296 796.499 97.2V91.728C796.499 85.392 792.227 82.224 783.683 82.224C780.131 82.224 777.011 82.656 774.323 83.52C771.635 84.288 769.283 85.152 767.267 86.112C765.251 86.976 764.099 87.408 763.811 87.408C762.563 87.408 761.123 86.064 759.491 83.376C757.955 80.688 757.187 78.672 757.187 77.328C757.187 75.792 758.387 74.304 760.787 72.864C763.283 71.328 766.643 70.08 770.867 69.12C775.091 68.16 779.651 67.68 784.547 67.68C794.723 67.68 802.259 69.792 807.155 74.016C812.147 78.144 814.643 83.856 814.643 91.152V120.096C814.643 126.624 814.931 131.424 815.507 134.496C816.083 137.472 816.371 139.296 816.371 139.968C816.371 141.312 814.787 142.368 811.619 143.136C808.451 143.808 805.619 145.01 803.123 145.01C801.587 145.01 800.483 143.472 799.811 142.128C799.139 140.688 798.611 139.152 798.227 137.52C797.939 135.888 797.747 134.784 797.651 134.208C795.635 136.8 792.755 139.248 789.011 141.552C785.363 143.856 780.803 145.008 775.331 145.008ZM780.227 130.464C783.587 130.464 786.659 129.6 789.443 127.872C792.227 126.048 794.579 123.744 796.499 120.96V110.016C788.627 110.016 782.435 110.928 777.923 112.752C773.507 114.48 771.299 117.6 771.299 122.112C771.299 124.704 772.067 126.768 773.603 128.304C775.139 129.744 777.347 130.464 780.227 130.464Z" fill="black"/>
<path d="M833.208 145.01C832.44 145.01 831.576 142.848 830.616 140.544C829.752 138.24 829.32 136.176 829.32 134.352C829.32 133.488 829.464 132.864 829.752 132.48L866.04 83.232H835.656C834.312 83.232 833.352 82.752 832.776 81.792C832.2 80.736 831.912 79.152 831.912 77.04V74.88C831.912 72.768 832.2 71.232 832.776 70.272C833.352 69.216 834.312 67.68 835.656 67.68H886.488C887.256 67.68 888.072 69.888 888.936 72.288C889.8 74.592 890.232 76.656 890.232 78.48C890.232 79.248 890.136 79.92 889.944 80.496L853.8 129.456H886.92C888.264 129.456 889.224 129.936 889.8 130.896C890.376 131.856 890.664 133.44 890.664 135.648V137.808C890.664 139.92 890.376 141.504 889.8 142.56C889.224 143.52 888.264 145.01 886.92 145.01H833.208Z" fill="black"/>
<path d="M933.825 145.008C922.593 145.008 914.049 141.696 908.193 135.072C902.337 128.448 899.409 118.896 899.409 106.416C899.409 93.84 902.337 84.24 908.193 77.616C914.049 70.992 922.593 67.68 933.825 67.68C944.961 67.68 953.409 70.992 959.169 77.616C965.025 84.24 967.953 93.84 967.953 106.416C967.953 118.992 965.025 128.592 959.169 135.216C953.409 141.744 944.961 145.008 933.825 145.008ZM933.681 130.464C939.057 130.464 942.993 128.496 945.489 124.56C948.081 120.528 949.377 114.432 949.377 106.272C949.377 98.208 948.081 92.208 945.489 88.272C942.993 84.24 939.057 82.224 933.681 82.224C928.305 82.224 924.321 84.24 921.729 88.272C919.137 92.208 917.841 98.208 917.841 106.272C917.841 114.432 919.137 120.528 921.729 124.56C924.321 128.496 928.305 130.464 933.681 130.464Z" fill="black"/>
<path d="M992.337 145.01C987.249 145.01 984.705 142.896 984.705 140.112V92.88C984.705 86.448 984.417 81.744 983.841 78.768C983.265 75.792 982.977 73.968 982.977 73.296C982.977 71.952 984.561 70.944 987.729 70.272C990.897 69.504 993.729 67.68 996.225 67.68C997.857 67.68 999.009 69.84 999.681 71.28C1000.35 72.624 1000.83 74.064 1001.12 75.6C1001.5 77.04 1001.75 78 1001.84 78.48C1004.34 75.312 1007.51 72.72 1011.35 70.704C1015.28 68.688 1019.36 67.68 1023.59 67.68C1038.18 67.68 1045.47 75.456 1045.47 91.008V140.112C1045.47 141.552 1044.85 142.608 1043.6 143.28C1042.45 143.952 1040.53 145.01 1037.84 145.01H1035.1C1030.02 145.01 1027.47 142.896 1027.47 140.112V93.456C1027.47 86.352 1023.87 82.8 1016.67 82.8C1013.89 82.8 1011.25 83.664 1008.75 85.392C1006.35 87.12 1004.38 89.232 1002.85 91.728V140.112C1002.85 142.896 1000.3 145.01 995.217 145.01H992.337Z" fill="black"/>
<path d="M1098.27 145.008C1085.89 145.008 1076.67 141.744 1070.62 135.216C1064.57 128.592 1061.55 119.136 1061.55 106.848C1061.55 93.6 1064.53 83.76 1070.48 77.328C1076.53 70.896 1085.02 67.68 1095.97 67.68C1106.33 67.68 1114.01 71.04 1119.01 77.76C1124.09 84.48 1126.64 93.552 1126.64 104.976C1126.64 106.032 1125.77 107.568 1124.05 109.584C1122.32 111.504 1121.02 112.464 1120.16 112.464H1080.41C1080.89 118.8 1082.62 123.408 1085.6 126.288C1088.67 129.072 1093.09 130.464 1098.85 130.464C1104.03 130.464 1109.31 129.12 1114.69 126.432C1116.22 125.76 1117.18 125.424 1117.57 125.424C1118.81 125.424 1120.21 126.72 1121.74 129.312C1123.37 131.808 1124.19 133.728 1124.19 135.072C1124.19 136.896 1122.8 138.576 1120.01 140.112C1117.23 141.648 1113.77 142.848 1109.65 143.712C1105.61 144.576 1101.82 145.008 1098.27 145.008ZM1108.64 99.648C1108.64 94.176 1107.53 89.904 1105.33 86.832C1103.21 83.76 1100.05 82.224 1095.82 82.224C1086.89 82.224 1081.76 88.032 1080.41 99.648H1108.64Z" fill="black"/>
<path d="M406 77L393 100C303.045 100 232.01 147.731 210.203 169.818C207.933 172.117 204.067 172.117 201.797 169.818C179.99 147.731 108.955 100 19 100L6 77" stroke="#FFD74A" stroke-width="12" stroke-linecap="round"/>
<path d="M384 67C275.5 76 230 114 206 136.5C182 114 136.5 76 28 67" stroke="#FFD74A" stroke-width="12" stroke-linecap="round"/>
<path d="M98 34.6571C98 1.15713 205 -25.8428 205 92.1572C205 -25.8428 318 1.15714 318 34.6571" stroke="#9BDFFB" stroke-width="12" stroke-linecap="round"/>
</svg>
